<svg width="551" height="397" viewBox="0 0 551 397" fill="none" xmlns="http://www.w3.org/2000/svg">
<mask id="mask0_45_3" style="mask-type:luminance" maskUnits="userSpaceOnUse" x="315" y="12" width="97" height="98">
<path d="M359.118 30.5891C375.829 28.2045 391.313 39.8157 393.698 56.5227C396.086 73.2322 384.472 88.7097 367.761 91.0968C351.047 93.4814 335.563 81.8726 333.178 65.1632C330.793 48.4537 342.404 32.9761 359.118 30.5891ZM325.513 76.6656C327 80.2351 328.969 83.525 331.325 86.4711L327.868 93.7164L334.848 98.9506L341.825 104.182L347.818 98.8368C351.307 100.277 355.016 101.244 358.858 101.672L361.538 109.234L370.173 108.002L378.811 106.767L379.266 98.7601C382.834 97.2735 386.125 95.3045 389.071 92.9496L396.321 96.4053L401.554 89.4271L406.79 82.4514L401.443 76.4603C402.88 72.9724 403.85 69.2645 404.278 65.4229L411.842 62.7439L410.607 54.1109L409.375 45.4754L401.364 45.0203C399.876 41.4508 397.909 38.1634 395.551 35.2173L399.008 27.9695L392.031 22.7378L385.051 17.5035L379.061 22.8491C375.572 21.4119 371.863 20.4422 368.018 20.0142L365.338 12.4523L356.703 13.6867L348.068 14.9185L347.613 22.9282C344.042 24.4149 340.752 26.3814 337.805 28.7388L330.558 25.2831L325.322 32.2588L320.089 39.2369L325.436 45.2256C323.996 48.7135 323.029 52.4214 322.6 56.2655L315.037 58.942L316.269 67.5774L317.503 76.2104L325.513 76.6656Z" fill="white"/>
</mask>
<g mask="url(#mask0_45_3)">
<path d="M359.118 30.5891C375.829 28.2045 391.313 39.8157 393.698 56.5227C396.086 73.2322 384.472 88.7097 367.761 91.0968C351.047 93.4814 335.563 81.8726 333.178 65.1632C330.793 48.4537 342.404 32.9761 359.118 30.5891ZM325.513 76.6656C327 80.2351 328.969 83.525 331.325 86.4711L327.868 93.7164L334.848 98.9506L341.825 104.182L347.818 98.8368C351.307 100.277 355.016 101.244 358.858 101.672L361.538 109.234L370.173 108.002L378.811 106.767L379.266 98.7601C382.834 97.2735 386.125 95.3045 389.071 92.9496L396.321 96.4053L401.554 89.4271L406.79 82.4514L401.443 76.4603C402.88 72.9724 403.85 69.2645 404.278 65.4229L411.842 62.7439L410.607 54.1109L409.375 45.4754L401.364 45.0203C399.876 41.4508 397.909 38.1634 395.551 35.2173L399.008 27.9695L392.031 22.7378L385.051 17.5035L379.061 22.8491C375.572 21.4119 371.863 20.4422 368.018 20.0142L365.338 12.4523L356.703 13.6867L348.068 14.9185L347.613 22.9282C344.042 24.4149 340.752 26.3814 337.805 28.7388L330.558 25.2831L325.322 32.2588L320.089 39.2369L325.436 45.2256C323.996 48.7135 323.029 52.4214 322.6 56.2655L315.037 58.942L316.269 67.5774L317.503 76.2104L325.513 76.6656Z" fill="url(#paint0_linear_45_3)"/>
</g>
<mask id="mask1_45_3" style="mask-type:luminance" maskUnits="userSpaceOnUse" x="402" y="0" width="37" height="37">
<path d="M419.146 6.7926C425.406 5.89961 431.203 10.2483 432.096 16.5066C432.989 22.7625 428.642 28.5607 422.382 29.4537C416.122 30.3467 410.325 25.998 409.432 19.7421C408.536 13.4838 412.886 7.68558 419.146 6.7926ZM406.562 24.0488C407.119 25.3845 407.856 26.6164 408.737 27.7196L407.443 30.4357L410.056 32.3948L412.671 34.3539L414.912 32.3528C416.221 32.892 417.609 33.2532 419.049 33.414L420.052 36.2463L423.285 35.7837L426.522 35.3236L426.69 32.3231C428.029 31.7665 429.261 31.0294 430.364 30.1463L433.079 31.44L435.038 28.8278L437 26.2157L434.996 23.972C435.535 22.666 435.899 21.2783 436.058 19.8386L438.891 18.8343L438.43 15.6013L437.968 12.3682L434.966 12.1975C434.41 10.8617 433.672 9.6299 432.792 8.52666L434.086 5.81305L431.473 3.85148L428.857 1.89232L426.613 3.89351C425.307 3.35673 423.919 2.99309 422.479 2.83231L421.477 -1.22409e-05L418.243 0.462588L415.007 0.925139L414.836 3.92317C413.5 4.47974 412.267 5.21689 411.164 6.09998L408.45 4.80629L406.49 7.41845L404.528 10.0306L406.532 12.2742C405.993 13.5803 405.629 14.9705 405.468 16.4077L402.638 17.412L403.098 20.645L403.561 23.8781L406.562 24.0488Z" fill="white"/>
</mask>
<g mask="url(#mask1_45_3)">
<path d="M419.146 6.7926C425.406 5.89961 431.203 10.2483 432.096 16.5066C432.989 22.7625 428.642 28.5607 422.382 29.4537C416.122 30.3467 410.325 25.998 409.432 19.7421C408.536 13.4838 412.886 7.68558 419.146 6.7926ZM406.562 24.0488C407.119 25.3845 407.856 26.6164 408.737 27.7196L407.443 30.4357L410.056 32.3948L412.671 34.3539L414.912 32.3528C416.221 32.892 417.609 33.2532 419.049 33.414L420.052 36.2463L423.285 35.7837L426.522 35.3236L426.69 32.3231C428.029 31.7665 429.261 31.0294 430.364 30.1463L433.079 31.44L435.038 28.8278L437 26.2157L434.996 23.972C435.535 22.666 435.899 21.2783 436.058 19.8386L438.891 18.8343L438.43 15.6013L437.968 12.3682L434.966 12.1975C434.41 10.8617 433.672 9.6299 432.792 8.52666L434.086 5.81305L431.473 3.85148L428.857 1.89232L426.613 3.89351C425.307 3.35673 423.919 2.99309 422.479 2.83231L421.477 -1.22409e-05L418.243 0.462588L415.007 0.925139L414.836 3.92317C413.5 4.47974 412.267 5.21689 411.164 6.09998L408.45 4.80629L406.49 7.41845L404.528 10.0306L406.532 12.2742C405.993 13.5803 405.629 14.9705 405.468 16.4077L402.638 17.412L403.098 20.645L403.561 23.8781L406.562 24.0488Z" fill="url(#paint1_linear_45_3)"/>
</g>
<path d="M260.583 324.985H258.93V151.79H260.583V324.985Z" fill="#F3F3F3"/>
<path d="M277.557 134.964H259.757V130.45H277.557V134.964Z" fill="white"/>
<path d="M273.999 143.308H259.757V138.794H273.999V143.308Z" fill="white"/>
<path d="M279.261 341.264H260.583V335.243H279.261V341.264Z" fill="white"/>
<mask id="mask2_45_3" style="mask-type:luminance" maskUnits="userSpaceOnUse" x="308" y="91" width="42" height="84">
<path d="M328.324 91.4035C328.324 91.4035 364.453 134.232 341.534 161.964C318.617 189.696 312.31 162.503 312.31 162.503C312.31 162.503 298.596 165.051 322.353 130.363C333.549 114.015 328.324 91.4035 328.324 91.4035Z" fill="white"/>
</mask>
<g mask="url(#mask2_45_3)">
<path d="M328.324 91.4035C328.324 91.4035 364.453 134.232 341.534 161.964C318.617 189.696 312.31 162.503 312.31 162.503C312.31 162.503 298.596 165.051 322.353 130.363C333.549 114.015 328.324 91.4035 328.324 91.4035Z" fill="url(#paint2_linear_45_3)"/>
</g>
<mask id="mask3_45_3" style="mask-type:luminance" maskUnits="userSpaceOnUse" x="368" y="57" width="48" height="77">
<path d="M369.775 133.614V92.1209C369.775 90.4017 369.483 88.7518 368.943 87.2157C378.937 77.1183 391.588 67.2558 407.512 57.9871C407.512 57.9871 426.532 86.0605 404.669 122.158C393.975 124.892 382.27 128.008 369.775 133.614Z" fill="white"/>
</mask>
<g mask="url(#mask3_45_3)">
<path d="M369.775 133.614V92.1209C369.775 90.4017 369.483 88.7518 368.943 87.2157C378.937 77.1183 391.588 67.2558 407.512 57.9871C407.512 57.9871 426.532 86.0605 404.669 122.158C393.975 124.892 382.27 128.008 369.775 133.614Z" fill="url(#paint3_linear_45_3)"/>
</g>
<mask id="mask4_45_3" style="mask-type:luminance" maskUnits="userSpaceOnUse" x="369" y="106" width="75" height="64">
<path d="M408.662 169.232C406.334 161.687 399.305 156.206 390.994 156.206H369.774V133.614C382.269 128.008 393.975 124.892 404.669 122.158C420.051 118.225 433.341 115.094 443.866 106.515C443.866 106.515 438.898 142.076 408.662 169.232Z" fill="white"/>
</mask>
<g mask="url(#mask4_45_3)">
<path d="M408.662 169.232C406.334 161.687 399.305 156.206 390.994 156.206H369.774V133.614C382.269 128.008 393.975 124.892 404.669 122.158C420.051 118.225 433.341 115.094 443.866 106.515C443.866 106.515 438.898 142.076 408.662 169.232Z" fill="url(#paint4_linear_45_3)"/>
</g>
<mask id="mask5_45_3" style="mask-type:luminance" maskUnits="userSpaceOnUse" x="94" y="151" width="3" height="174">
<path d="M96.5127 324.985H94.8613V275.165C95.3997 275.603 95.952 276.044 96.5127 276.484V324.985ZM96.5127 232.042C95.9003 231.617 95.3666 231.288 94.8613 231.068V151.79H96.5127V206.509C96.0111 207.051 95.7491 207.39 95.6858 207.472V218.996C95.7107 218.967 95.9869 218.615 96.5127 218.019V232.042Z" fill="white"/>
</mask>
<g mask="url(#mask5_45_3)">
<path d="M96.5127 324.985H94.8613V275.165C95.3997 275.603 95.952 276.044 96.5127 276.484V324.985ZM96.5127 232.042C95.9003 231.617 95.3666 231.288 94.8613 231.068V151.79H96.5127V206.509C96.0111 207.051 95.7491 207.39 95.6858 207.472V218.996C95.7107 218.967 95.9869 218.615 96.5127 218.019V232.042Z" fill="url(#paint5_linear_45_3)"/>
</g>
<path d="M213.916 324.985H212.266V151.79H213.916V324.985Z" fill="#F3F3F3"/>
<path d="M329.669 324.985H331.32V151.79H329.669V324.985Z" fill="#F3F3F3"/>
<path d="M123.809 134.964H95.687V130.45H123.809V134.964Z" fill="#E0E0E0"/>
<path d="M135.576 143.308H95.687V138.794H135.576V143.308Z" fill="#E0E0E0"/>
<path d="M244.839 134.964H211.825V130.45H244.839V134.964Z" fill="white"/>
<path d="M232.936 143.308H211.825V138.794H232.936V143.308Z" fill="white"/>
<path d="M351.779 134.964H331.319V130.45H351.779V134.964Z" fill="white"/>
<path d="M355.166 143.308H331.319V138.794H355.166V143.308Z" fill="white"/>
<path d="M231.77 341.264H213.092V335.243H231.77V341.264Z" fill="white"/>
<path d="M331.319 341.264H350V335.243H331.319V341.264Z" fill="white"/>
<mask id="mask6_45_3" style="mask-type:luminance" maskUnits="userSpaceOnUse" x="95" y="173" width="456" height="46">
<path d="M95.6855 218.996V207.472C95.7489 207.39 96.0109 207.051 96.5124 206.509C98.5215 204.333 104.374 198.871 116.668 193.6C124.481 190.25 135.264 187.282 148.905 187.282C153.455 187.282 158.319 187.611 163.503 188.368V196.308C158.881 195.616 154.494 195.304 150.34 195.304C118.524 195.304 100.462 213.552 96.5124 218.019C95.9867 218.615 95.7105 218.967 95.6855 218.996ZM409.481 212.473V202.801C427.138 191.376 444.47 182.253 461.666 177.321C470.925 174.661 480.292 173.241 489.689 173.241C503.268 173.241 516.914 176.205 530.408 182.671C537.146 185.889 543.846 189.991 550.47 195.024V205.369C541.78 198.448 533.229 193.209 524.762 189.471C513.049 184.294 501.502 181.971 489.991 181.971C463.485 181.971 437.173 194.297 409.481 212.473Z" fill="white"/>
</mask>
<g mask="url(#mask6_45_3)">
<path d="M95.6855 218.996V207.472C95.7489 207.39 96.0109 207.051 96.5124 206.509C98.5215 204.333 104.374 198.871 116.668 193.6C124.481 190.25 135.264 187.282 148.905 187.282C153.455 187.282 158.319 187.611 163.503 188.368V196.308C158.881 195.616 154.494 195.304 150.34 195.304C118.524 195.304 100.462 213.552 96.5124 218.019C95.9867 218.615 95.7105 218.967 95.6855 218.996ZM409.481 212.473V202.801C427.138 191.376 444.47 182.253 461.666 177.321C470.925 174.661 480.292 173.241 489.689 173.241C503.268 173.241 516.914 176.205 530.408 182.671C537.146 185.889 543.846 189.991 550.47 195.024V205.369C541.78 198.448 533.229 193.209 524.762 189.471C513.049 184.294 501.502 181.971 489.991 181.971C463.485 181.971 437.173 194.297 409.481 212.473Z" fill="url(#paint6_linear_45_3)"/>
</g>
<path d="M33.3242 216.219H27.6826V240.574H33.3242V216.219Z" fill="#E0E0E0"/>
<path d="M47.3327 206.324H41.6909V240.574H47.3327V206.324Z" fill="#E0E0E0"/>
<path d="M61.3415 201.164H55.6997V240.574H61.3415V201.164Z" fill="#E0E0E0"/>
<path d="M75.3496 199.012H69.708V240.574H75.3496V199.012Z" fill="#E0E0E0"/>
<mask id="mask7_45_3" style="mask-type:luminance" maskUnits="userSpaceOnUse" x="27" y="225" width="7" height="16">
<path d="M33.3242 225.294H27.6826V240.574H33.3242V225.294Z" fill="white"/>
</mask>
<g mask="url(#mask7_45_3)">
<path d="M33.3242 225.294H27.6826V240.574H33.3242V225.294Z" fill="url(#paint7_linear_45_3)"/>
</g>
<mask id="mask8_45_3" style="mask-type:luminance" maskUnits="userSpaceOnUse" x="41" y="219" width="7" height="22">
<path d="M47.3327 219.088H41.6909V240.574H47.3327V219.088Z" fill="white"/>
</mask>
<g mask="url(#mask8_45_3)">
<path d="M47.3327 219.088H41.6909V240.574H47.3327V219.088Z" fill="url(#paint8_linear_45_3)"/>
</g>
<mask id="mask9_45_3" style="mask-type:luminance" maskUnits="userSpaceOnUse" x="55" y="215" width="7" height="26">
<path d="M61.3415 215.847H55.6997V240.574H61.3415V215.847Z" fill="white"/>
</mask>
<g mask="url(#mask9_45_3)">
<path d="M61.3415 215.847H55.6997V240.574H61.3415V215.847Z" fill="url(#paint9_linear_45_3)"/>
</g>
<mask id="mask10_45_3" style="mask-type:luminance" maskUnits="userSpaceOnUse" x="69" y="214" width="7" height="27">
<path d="M75.3496 214.499H69.708V240.574H75.3496V214.499Z" fill="white"/>
</mask>
<g mask="url(#mask10_45_3)">
<path d="M75.3496 214.499H69.708V240.574H75.3496V214.499Z" fill="url(#paint10_linear_45_3)"/>
</g>
<mask id="mask11_45_3" style="mask-type:luminance" maskUnits="userSpaceOnUse" x="163" y="77" width="207" height="274">
<path d="M354.944 350.134H178.334C170.144 350.134 163.503 343.495 163.503 335.307V257.224C167.729 256.126 171.777 254.716 175.708 253.063V338.604H292.8C296.039 341.4 300.258 343.089 304.872 343.089H367.57C364.957 347.317 360.281 350.134 354.944 350.134ZM163.503 249.417V196.308V188.368V92.1209C163.503 84.8286 168.768 78.7657 175.708 77.5239V244.752C171.742 246.629 167.702 248.22 163.503 249.417ZM369.774 156.206H357.569V77.5239C362.874 78.4713 367.199 82.2362 368.943 87.2157C369.483 88.7518 369.774 90.4017 369.774 92.1209V133.614V156.206Z" fill="white"/>
</mask>
<g mask="url(#mask11_45_3)">
<path d="M354.944 350.134H178.334C170.144 350.134 163.503 343.495 163.503 335.307V257.224C167.729 256.126 171.777 254.716 175.708 253.063V338.604H292.8C296.039 341.4 300.258 343.089 304.872 343.089H367.57C364.957 347.317 360.281 350.134 354.944 350.134ZM163.503 249.417V196.308V188.368V92.1209C163.503 84.8286 168.768 78.7657 175.708 77.5239V244.752C171.742 246.629 167.702 248.22 163.503 249.417ZM369.774 156.206H357.569V77.5239C362.874 78.4713 367.199 82.2362 368.943 87.2157C369.483 88.7518 369.774 90.4017 369.774 92.1209V133.614V156.206Z" fill="url(#paint11_linear_45_3)"/>
</g>
<path d="M357.569 47.2688H185.667C180.167 47.2688 175.708 51.7263 175.708 57.2277V338.604H357.569V47.2688Z" fill="#F5F5F5"/>
<mask id="mask12_45_3" style="mask-type:luminance" maskUnits="userSpaceOnUse" x="287" y="101" width="54" height="8">
<path d="M340.623 108.593H287.001V101.813H340.623V108.593Z" fill="white"/>
</mask>
<g mask="url(#mask12_45_3)">
<path d="M340.623 108.593H287.001V101.813H340.623V108.593Z" fill="url(#paint12_linear_45_3)"/>
</g>
<mask id="mask13_45_3" style="mask-type:luminance" maskUnits="userSpaceOnUse" x="287" y="130" width="50" height="8">
<path d="M336.224 137.017H287.001V130.237H336.224V137.017Z" fill="white"/>
</mask>
<g mask="url(#mask13_45_3)">
<path d="M336.224 137.017H287.001V130.237H336.224V137.017Z" fill="url(#paint13_linear_45_3)"/>
</g>
<mask id="mask14_45_3" style="mask-type:luminance" maskUnits="userSpaceOnUse" x="287" y="116" width="43" height="7">
<path d="M329.59 122.806H287.001V116.026H329.59V122.806Z" fill="white"/>
</mask>
<g mask="url(#mask14_45_3)">
<path d="M329.59 122.806H287.001V116.026H329.59V122.806Z" fill="url(#paint14_linear_45_3)"/>
</g>
<mask id="mask15_45_3" style="mask-type:luminance" maskUnits="userSpaceOnUse" x="187" y="60" width="85" height="86">
<path d="M229.467 63.0729C207.406 63.0729 189.458 81.0167 189.458 103.069C189.458 118.725 198.672 133.025 212.934 139.503C218.134 141.868 223.697 143.068 229.467 143.068C235.237 143.068 240.799 141.868 246 139.503C260.261 133.025 269.475 118.725 269.475 103.069C269.475 81.0167 251.527 63.0729 229.467 63.0729ZM229.467 145.297C223.375 145.297 217.501 144.03 212.011 141.534C196.957 134.695 187.229 119.596 187.229 103.069C187.229 79.7873 206.176 60.8441 229.467 60.8441C252.757 60.8441 271.705 79.7873 271.705 103.069C271.705 119.596 261.976 134.695 246.922 141.534C241.432 144.03 235.558 145.297 229.467 145.297Z" fill="white"/>
</mask>
<g mask="url(#mask15_45_3)">
<path d="M229.467 63.0729C207.406 63.0729 189.458 81.0167 189.458 103.069C189.458 118.725 198.672 133.025 212.934 139.503C218.134 141.868 223.697 143.068 229.467 143.068C235.237 143.068 240.799 141.868 246 139.503C260.261 133.025 269.475 118.725 269.475 103.069C269.475 81.0167 251.527 63.0729 229.467 63.0729ZM229.467 145.297C223.375 145.297 217.501 144.03 212.011 141.534C196.957 134.695 187.229 119.596 187.229 103.069C187.229 79.7873 206.176 60.8441 229.467 60.8441C252.757 60.8441 271.705 79.7873 271.705 103.069C271.705 119.596 261.976 134.695 246.922 141.534C241.432 144.03 235.558 145.297 229.467 145.297Z" fill="url(#paint15_linear_45_3)"/>
</g>
<path d="M248.843 168.341H187.229V162.296H248.843V168.341Z" fill="#E0E0E0"/>
<path d="M248.843 184.608H187.229V178.56H248.843V184.608Z" fill="#E0E0E0"/>
<path d="M248.843 200.872H187.229V194.826H248.843V200.872Z" fill="#E0E0E0"/>
<path d="M271.705 168.341H261.419V162.296H271.705V168.341Z" fill="#4E7ED6"/>
<path d="M271.705 184.608H261.419V178.56H271.705V184.608Z" fill="#4E7ED6"/>
<path d="M271.705 200.872H261.419V194.826H271.705V200.872Z" fill="#4E7ED6"/>
<mask id="mask16_45_3" style="mask-type:luminance" maskUnits="userSpaceOnUse" x="99" y="197" width="452" height="77">
<path d="M524.621 273.528C489.868 273.528 459.432 259.267 428.056 243.723C426.371 242.884 424.678 242.048 422.983 241.202C418.505 238.976 414.012 236.74 409.481 234.531V225.789C415.197 228.547 420.853 231.36 426.482 234.16C430.681 236.243 434.857 238.318 439.036 240.346C466.874 253.892 494.408 265.451 525.022 265.451C533.261 265.454 541.718 264.615 550.47 262.755V271.138C541.632 272.951 533.434 273.528 524.621 273.528ZM141.621 259.841C118.353 259.841 105.458 252.908 99.6074 248.274C99.67 244.178 99.8917 241.071 99.8917 241.071C99.8917 241.071 100.145 240.492 100.317 239.614C106.293 244.856 119.222 251.891 145.522 251.891H146.24C152.403 251.856 158.089 250.963 163.503 249.417C167.702 248.22 171.742 246.629 175.708 244.752C183.918 240.863 191.828 235.731 200.29 230.244C221.005 216.81 244.471 201.592 282.406 197.713C283.74 197.577 285.066 197.453 286.382 197.347V205.238C285.328 205.327 284.271 205.426 283.208 205.535C247.16 209.221 224.54 223.899 204.581 236.839C195.025 243.038 185.747 248.841 175.708 253.063C171.777 254.716 167.729 256.126 163.503 257.224C158.097 258.629 152.398 259.52 146.277 259.752C144.681 259.811 143.13 259.841 141.621 259.841Z" fill="white"/>
</mask>
<g mask="url(#mask16_45_3)">
<path d="M524.621 273.528C489.868 273.528 459.432 259.267 428.056 243.723C426.371 242.884 424.678 242.048 422.983 241.202C418.505 238.976 414.012 236.74 409.481 234.531V225.789C415.197 228.547 420.853 231.36 426.482 234.16C430.681 236.243 434.857 238.318 439.036 240.346C466.874 253.892 494.408 265.451 525.022 265.451C533.261 265.454 541.718 264.615 550.47 262.755V271.138C541.632 272.951 533.434 273.528 524.621 273.528ZM141.621 259.841C118.353 259.841 105.458 252.908 99.6074 248.274C99.67 244.178 99.8917 241.071 99.8917 241.071C99.8917 241.071 100.145 240.492 100.317 239.614C106.293 244.856 119.222 251.891 145.522 251.891H146.24C152.403 251.856 158.089 250.963 163.503 249.417C167.702 248.22 171.742 246.629 175.708 244.752C183.918 240.863 191.828 235.731 200.29 230.244C221.005 216.81 244.471 201.592 282.406 197.713C283.74 197.577 285.066 197.453 286.382 197.347V205.238C285.328 205.327 284.271 205.426 283.208 205.535C247.16 209.221 224.54 223.899 204.581 236.839C195.025 243.038 185.747 248.841 175.708 253.063C171.777 254.716 167.729 256.126 163.503 257.224C158.097 258.629 152.398 259.52 146.277 259.752C144.681 259.811 143.13 259.841 141.621 259.841Z" fill="url(#paint16_radial_45_3)"/>
</g>
<path d="M390.994 343.089H367.57C368.968 340.826 369.775 338.159 369.775 335.307V240.995C376.789 235.679 383.673 230.531 390.465 225.631C396.895 228.48 403.222 231.481 409.482 234.531V324.604C409.482 334.812 401.205 343.089 390.994 343.089ZM369.775 231.105V217.24C373.895 218.737 377.96 220.327 381.973 221.987C377.93 224.968 373.865 228.013 369.775 231.105Z" fill="white"/>
<mask id="mask17_45_3" style="mask-type:luminance" maskUnits="userSpaceOnUse" x="369" y="221" width="22" height="20">
<path d="M369.774 240.995V231.105C373.864 228.013 377.93 224.968 381.973 221.987C384.828 223.169 387.653 224.384 390.464 225.631C383.672 230.531 376.789 235.679 369.774 240.995Z" fill="white"/>
</mask>
<g mask="url(#mask17_45_3)">
<path d="M369.774 240.995V231.105C373.864 228.013 377.93 224.968 381.973 221.987C384.828 223.169 387.653 224.384 390.464 225.631C383.672 230.531 376.789 235.679 369.774 240.995Z" fill="url(#paint17_linear_45_3)"/>
</g>
<path d="M409.481 225.789C405.651 223.941 401.794 222.118 397.899 220.342C401.791 217.616 405.646 214.992 409.481 212.473V225.789ZM389.408 216.572C382.994 213.812 376.465 211.209 369.774 208.854V191.779C385.971 186.231 398.691 178.189 408.662 169.232C409.194 170.956 409.481 172.791 409.481 174.691V202.801C402.84 207.098 396.152 211.724 389.408 216.572Z" fill="white"/>
<mask id="mask18_45_3" style="mask-type:luminance" maskUnits="userSpaceOnUse" x="369" y="156" width="40" height="36">
<path d="M369.774 191.779V156.206H390.994C399.305 156.206 406.334 161.687 408.662 169.232C398.691 178.189 385.971 186.231 369.774 191.779Z" fill="white"/>
</mask>
<g mask="url(#mask18_45_3)">
<path d="M369.774 191.779V156.206H390.994C399.305 156.206 406.334 161.687 408.662 169.232C398.691 178.189 385.971 186.231 369.774 191.779Z" fill="url(#paint18_linear_45_3)"/>
</g>
<mask id="mask19_45_3" style="mask-type:luminance" maskUnits="userSpaceOnUse" x="389" y="202" width="21" height="19">
<path d="M397.9 220.342C395.092 219.058 392.261 217.799 389.408 216.572C396.153 211.724 402.841 207.098 409.482 202.801V212.473C405.647 214.992 401.792 217.616 397.9 220.342Z" fill="white"/>
</mask>
<g mask="url(#mask19_45_3)">
<path d="M397.9 220.342C395.092 219.058 392.261 217.799 389.408 216.572C396.153 211.724 402.841 207.098 409.482 202.801V212.473C405.647 214.992 401.792 217.616 397.9 220.342Z" fill="url(#paint19_linear_45_3)"/>
</g>
<mask id="mask20_45_3" style="mask-type:luminance" maskUnits="userSpaceOnUse" x="292" y="156" width="78" height="188">
<path d="M367.57 343.089H304.872C300.258 343.089 296.039 341.4 292.8 338.604H357.569V213.156C361.698 214.415 365.764 215.783 369.774 217.24V231.105V240.995V335.307C369.774 338.159 368.968 340.826 367.57 343.089ZM369.774 208.854C365.766 207.445 361.703 206.121 357.569 204.907V156.206H369.774V191.779V208.854Z" fill="white"/>
</mask>
<g mask="url(#mask20_45_3)">
<path d="M367.57 343.089H304.872C300.258 343.089 296.039 341.4 292.8 338.604H357.569V213.156C361.698 214.415 365.764 215.783 369.774 217.24V231.105V240.995V335.307C369.774 338.159 368.968 340.826 367.57 343.089ZM369.774 208.854C365.766 207.445 361.703 206.121 357.569 204.907V156.206H369.774V191.779V208.854Z" fill="url(#paint20_linear_45_3)"/>
</g>
<path d="M357.569 338.604H292.8C288.868 335.216 286.382 330.199 286.382 324.604V205.238C291.714 204.783 296.917 204.568 302.007 204.568C322.088 204.568 340.387 207.919 357.569 213.156V338.604ZM357.569 204.907C340.462 199.878 322.224 196.694 302.182 196.694C297.041 196.694 291.771 196.904 286.382 197.347V174.691C286.382 164.48 294.661 156.206 304.872 156.206H357.569V204.907Z" fill="white"/>
<mask id="mask21_45_3" style="mask-type:luminance" maskUnits="userSpaceOnUse" x="286" y="196" width="124" height="39">
<path d="M409.481 234.531C403.221 231.481 396.895 228.48 390.464 225.631C387.653 224.384 384.828 223.169 381.972 221.987C377.959 220.327 373.894 218.737 369.774 217.24C365.763 215.783 361.698 214.415 357.569 213.156C340.387 207.919 322.088 204.568 302.007 204.568C296.917 204.568 291.714 204.783 286.382 205.238V197.347C291.771 196.904 297.041 196.694 302.182 196.694C322.224 196.694 340.462 199.878 357.569 204.907C361.703 206.121 365.766 207.444 369.774 208.854C376.465 211.209 382.994 213.812 389.408 216.572C392.26 217.799 395.091 219.058 397.899 220.342C401.794 222.118 405.651 223.941 409.481 225.789V234.531Z" fill="white"/>
</mask>
<g mask="url(#mask21_45_3)">
<path d="M409.481 234.531C403.221 231.481 396.895 228.48 390.464 225.631C387.653 224.384 384.828 223.169 381.972 221.987C377.959 220.327 373.894 218.737 369.774 217.24C365.763 215.783 361.698 214.415 357.569 213.156C340.387 207.919 322.088 204.568 302.007 204.568C296.917 204.568 291.714 204.783 286.382 205.238V197.347C291.771 196.904 297.041 196.694 302.182 196.694C322.224 196.694 340.462 199.878 357.569 204.907C361.703 206.121 365.766 207.444 369.774 208.854C376.465 211.209 382.994 213.812 389.408 216.572C392.26 217.799 395.091 219.058 397.899 220.342C401.794 222.118 405.651 223.941 409.481 225.789V234.531Z" fill="url(#paint21_radial_45_3)"/>
</g>
<path d="M381.206 205.008C375.119 207.182 368.56 205.218 364.606 200.573C363.663 199.465 362.869 198.205 362.265 196.813C362.132 196.506 362.008 196.189 361.892 195.87C360.744 192.655 360.749 189.308 361.696 186.283C363.065 181.917 366.39 178.221 371.032 176.564C372.563 176.014 374.124 175.73 375.666 175.683C382.037 175.49 388.082 179.376 390.343 185.699C393.154 193.553 389.062 202.198 381.206 205.008ZM395.091 184.002C392.075 175.567 384.014 170.387 375.515 170.644C373.459 170.706 371.376 171.084 369.332 171.817C363.144 174.028 358.705 178.958 356.881 184.781C355.62 188.816 355.61 193.28 357.144 197.57C357.297 197.995 357.463 198.416 357.641 198.824C358.448 200.682 359.507 202.364 360.763 203.84C366.036 210.037 374.788 212.656 382.903 209.755C393.384 206.007 398.84 194.478 395.091 184.002Z" fill="#E0E0E0"/>
<path d="M361.696 186.283L356.881 184.781C358.705 178.958 363.144 174.028 369.332 171.817C371.376 171.084 373.459 170.706 375.515 170.644L375.666 175.683C374.124 175.73 372.563 176.014 371.032 176.564C366.39 178.221 363.065 181.917 361.696 186.283Z" fill="#537FFD"/>
<path d="M362.265 196.813L357.641 198.824C357.463 198.416 357.297 197.995 357.144 197.57C355.61 193.28 355.62 188.816 356.881 184.781L361.696 186.283C360.749 189.308 360.744 192.655 361.892 195.87C362.008 196.189 362.132 196.506 362.265 196.813Z" fill="#4BA6F3"/>
<path d="M360.763 203.84C359.506 202.364 358.447 200.682 357.641 198.824L362.265 196.813C362.869 198.205 363.663 199.465 364.606 200.573L360.763 203.84Z" fill="#46BBED"/>
<path d="M375.94 300.899H365.078V336.504H375.94V300.899Z" fill="#46BBED"/>
<path d="M359.794 310.885H348.932V336.504H359.794V310.885Z" fill="#46BBED"/>
<path d="M391.605 284.397H380.743V336.504H391.605V284.397Z" fill="#46BBED"/>
<path d="M302.828 297.23L301.883 296.506L319.584 273.481L341.429 274.666L357.901 248.438L375.648 246.607L386.312 225.522L387.374 226.059L376.418 247.725L358.601 249.563L342.063 275.89L320.146 274.703L302.828 297.23Z" fill="#46BBED"/>
<path d="M336.303 182.738H305.414C303.464 182.738 301.883 181.157 301.883 179.205C301.883 177.256 303.464 175.676 305.414 175.676H336.303C338.252 175.676 339.833 177.256 339.833 179.205C339.833 181.157 338.252 182.738 336.303 182.738Z" fill="#4E7ED6"/>
<path d="M336.303 195.054H305.414C303.464 195.054 301.883 193.473 301.883 191.524C301.883 189.572 303.464 187.992 305.414 187.992H336.303C338.252 187.992 339.833 189.572 339.833 191.524C339.833 193.473 338.252 195.054 336.303 195.054Z" fill="#E0E0E0"/>
<path d="M336.303 207.37H305.414C303.464 207.37 301.883 205.79 301.883 203.84C301.883 201.891 303.464 200.311 305.414 200.311H336.303C338.252 200.311 339.833 201.891 339.833 203.84C339.833 205.79 338.252 207.37 336.303 207.37Z" fill="#E0E0E0"/>
<mask id="mask22_45_3" style="mask-type:luminance" maskUnits="userSpaceOnUse" x="49" y="273" width="17" height="9">
<path d="M53.1782 281.416H65.6133L61.8072 273.525H49.3721L53.1782 281.416Z" fill="white"/>
</mask>
<g mask="url(#mask22_45_3)">
<path d="M53.1782 281.416H65.6133L61.8072 273.525H49.3721L53.1782 281.416Z" fill="url(#paint22_linear_45_3)"/>
</g>
<mask id="mask23_45_3" style="mask-type:luminance" maskUnits="userSpaceOnUse" x="43" y="273" width="8" height="9">
<path d="M47.3596 281.416H50.3228L46.5166 273.525H43.5532L47.3596 281.416Z" fill="white"/>
</mask>
<g mask="url(#mask23_45_3)">
<path d="M47.3596 281.416H50.3228L46.5166 273.525H43.5532L47.3596 281.416Z" fill="url(#paint23_linear_45_3)"/>
</g>
<mask id="mask24_45_3" style="mask-type:luminance" maskUnits="userSpaceOnUse" x="264" y="23" width="25" height="5">
<path d="M264.252 27.6281H288.871V23.1706H264.252V27.6281Z" fill="white"/>
</mask>
<g mask="url(#mask24_45_3)">
<path d="M264.252 27.6281H288.871V23.1706H264.252V27.6281Z" fill="url(#paint24_linear_45_3)"/>
</g>
<mask id="mask25_45_3" style="mask-type:luminance" maskUnits="userSpaceOnUse" x="264" y="21" width="25" height="1">
<path d="M264.252 21.9288H288.871V21.0903H264.252V21.9288Z" fill="white"/>
</mask>
<g mask="url(#mask25_45_3)">
<path d="M264.252 21.9288H288.871V21.0903H264.252V21.9288Z" fill="url(#paint25_linear_45_3)"/>
</g>
<mask id="mask26_45_3" style="mask-type:luminance" maskUnits="userSpaceOnUse" x="223" y="79" width="12" height="48">
<path d="M234.969 126.208H223.964V79.9333H234.969V126.208Z" fill="white"/>
</mask>
<g mask="url(#mask26_45_3)">
<path d="M234.969 126.208H223.964V79.9333H234.969V126.208Z" fill="url(#paint26_linear_45_3)"/>
</g>
<mask id="mask27_45_3" style="mask-type:luminance" maskUnits="userSpaceOnUse" x="206" y="97" width="47" height="12">
<path d="M206.322 108.573V97.5678H252.611V108.573H206.322Z" fill="white"/>
</mask>
<g mask="url(#mask27_45_3)">
<path d="M206.322 108.573V97.5678H252.611V108.573H206.322Z" fill="url(#paint27_linear_45_3)"/>
</g>
<path d="M74.9106 156.015C71.3079 163.626 63.4518 167.861 55.5253 167.221C53.636 167.07 51.7422 166.639 49.9011 165.912C49.4945 165.754 49.09 165.578 48.6894 165.388C44.6655 163.485 41.5858 160.393 39.6703 156.732C36.905 151.451 36.5648 144.98 39.3125 139.175C40.219 137.26 41.3956 135.558 42.7735 134.094C48.467 128.048 57.6188 126.057 65.5324 129.799C75.3632 134.45 79.5612 146.185 74.9106 156.015ZM68.3439 123.86C57.789 118.868 45.584 121.523 37.9885 129.587C36.1496 131.538 34.5812 133.809 33.371 136.364C29.7074 144.107 30.1604 152.737 33.8478 159.785C36.4032 164.668 40.5115 168.789 45.8792 171.329C46.4126 171.582 46.9525 171.814 47.4939 172.029C49.9501 172.997 52.475 173.57 54.9956 173.773C65.5686 174.627 76.0468 168.977 80.8526 158.825C87.0558 145.717 81.4555 130.064 68.3439 123.86Z" fill="#E0E0E0"/>
<path d="M39.6703 156.732L33.8478 159.785C30.1604 152.737 29.7074 144.107 33.371 136.364C34.5812 133.809 36.1496 131.538 37.9885 129.587L42.7735 134.094C41.3956 135.558 40.219 137.26 39.3125 139.174C36.5648 144.98 36.905 151.451 39.6703 156.732Z" fill="#2D5BAD"/>
<path d="M49.9009 165.912L47.4937 172.029C46.9523 171.814 46.4124 171.582 45.879 171.329C40.5113 168.789 36.4031 164.668 33.8477 159.785L39.6701 156.732C41.5857 160.393 44.6654 163.485 48.6893 165.388C49.0898 165.578 49.4944 165.754 49.9009 165.912Z" fill="#5D96FF"/>
<path d="M54.9954 173.773C52.4748 173.57 49.9498 172.997 47.4937 172.029L49.9009 165.912C51.742 166.639 53.6358 167.07 55.5251 167.221L54.9954 173.773Z" fill="#5D96FF"/>
<path d="M49.0425 191.079H0.000488281V190.104H48.0677V169.333H49.0425V191.079Z" fill="#5D96FF"/>
<path d="M25.8147 185.808H0V179.962H25.8147V185.808Z" fill="#E0E0E0"/>
<path d="M183.985 275.883H143.899V278.262H183.985V275.883Z" fill="#E2D2CA"/>
<path d="M149.271 392.641H152.784V284.454H149.271V392.641Z" fill="#706865"/>
<path d="M205.573 275.21H177.71V278.606H205.573V275.21Z" fill="#CCBDB7"/>
<path d="M196.918 278.262H186.365V246.224H196.918V278.262Z" fill="#998E89"/>
<path d="M283.895 284.454H129.519V278.302H283.895V284.454Z" fill="#B59074"/>
<path d="M110.416 286.448C110.416 286.448 102.93 281.518 96.5126 276.484V245.403C97.148 246.127 98.1624 247.132 99.6076 248.274C99.4973 255.488 99.8796 265.768 102.83 267.576C105.728 269.35 117.284 275.336 116.941 276.459C116.598 277.582 110.416 286.448 110.416 286.448ZM94.8613 275.165C90.949 271.982 87.7681 268.927 87.5043 267.227C86.8051 262.73 88.5969 232.567 91.6472 231.179C92.3034 230.88 92.871 230.739 93.4146 230.739C93.9003 230.739 94.3669 230.85 94.8613 231.068V275.165ZM100.318 239.614C98.4099 237.94 97.2116 236.45 96.5126 235.429V232.042C96.9649 232.357 97.4602 232.723 98.0184 233.136C100.678 235.11 100.649 237.922 100.318 239.614Z" fill="white"/>
<mask id="mask28_45_3" style="mask-type:luminance" maskUnits="userSpaceOnUse" x="94" y="231" width="3" height="46">
<path d="M96.5127 276.484C95.952 276.044 95.3997 275.603 94.8613 275.165V231.068C95.3666 231.288 95.9003 231.617 96.5127 232.042V235.429C95.9285 234.575 95.6937 234.051 95.6858 234.021V244.252C95.715 244.386 95.9807 244.797 96.5127 245.403V276.484Z" fill="white"/>
</mask>
<g mask="url(#mask28_45_3)">
<path d="M96.5127 276.484C95.952 276.044 95.3997 275.603 94.8613 275.165V231.068C95.3666 231.288 95.9003 231.617 96.5127 232.042V235.429C95.9285 234.575 95.6937 234.051 95.6858 234.021V244.252C95.715 244.386 95.9807 244.797 96.5127 245.403V276.484Z" fill="url(#paint28_linear_45_3)"/>
</g>
<mask id="mask29_45_3" style="mask-type:luminance" maskUnits="userSpaceOnUse" x="95" y="234" width="6" height="15">
<path d="M99.6075 248.274C98.1623 247.132 97.1478 246.127 96.5124 245.403C95.9805 244.797 95.7147 244.386 95.6855 244.252V234.021C95.6935 234.051 95.9283 234.575 96.5124 235.429C97.2114 236.45 98.4097 237.94 100.317 239.614C100.145 240.492 99.8918 241.071 99.8918 241.071C99.8918 241.071 99.6701 244.178 99.6075 248.274Z" fill="white"/>
</mask>
<g mask="url(#mask29_45_3)">
<path d="M99.6075 248.274C98.1623 247.132 97.1478 246.127 96.5124 245.403C95.9805 244.797 95.7147 244.386 95.6855 244.252V234.021C95.6935 234.051 95.9283 234.575 96.5124 235.429C97.2114 236.45 98.4097 237.94 100.317 239.614C100.145 240.492 99.8918 241.071 99.8918 241.071C99.8918 241.071 99.6701 244.178 99.6075 248.274Z" fill="url(#paint29_radial_45_3)"/>
</g>
<path d="M127.201 377.869C127.201 377.869 126.511 382.66 126.424 383.377C126.337 384.097 118.747 382.954 118.747 382.954L118.132 377.253C118.132 377.253 126.253 377.193 127.201 377.869Z" fill="#424773"/>
<path d="M126.505 382.769C126.505 382.769 128.91 385.656 131.236 386.915C133.564 388.171 137.219 388.671 138.595 389.972C139.589 390.912 142.212 394.959 132.55 394.877C122.887 394.796 118.229 395.449 117.193 393.898C116.158 392.347 118.691 382.445 118.691 382.445C118.691 382.445 120.98 383.268 126.505 382.769Z" fill="#292C47"/>
<path d="M175.842 377.916C175.842 377.916 175.152 382.705 175.065 383.424C174.979 384.144 167.388 383.001 167.388 383.001L166.774 377.297C166.774 377.297 174.892 377.24 175.842 377.916Z" fill="#424773"/>
<path d="M175.147 382.816C175.147 382.816 177.552 385.7 179.878 386.959C182.206 388.218 190.767 389.25 192.143 390.553C193.135 391.493 194.788 395.276 181.192 394.922C171.532 394.672 166.871 395.493 165.834 393.942C164.8 392.391 167.333 382.489 167.333 382.489C167.333 382.489 169.489 383.37 175.147 382.816Z" fill="#292C47"/>
<path d="M102.714 295.133C102.714 295.133 130.316 299.8 136.549 300.78C142.784 301.76 176.587 310.167 180.813 312.73C184.178 314.771 179.049 363.756 177.851 382.445H164.537L163.57 326.382C147.594 326.783 136.192 322.647 124.558 324.413C112.924 326.179 103.225 328.69 95.832 318.776C95.832 318.776 95.558 297.297 102.714 295.133Z" fill="#292C47"/>
<path d="M129.92 382.489L116.945 381.688L115.68 326.382C108.802 326.555 106.444 326.117 100.879 325.442L90.4028 301.099C99.5836 302.934 129 310.35 132.921 312.73C136.286 314.771 131.118 363.801 129.92 382.489Z" fill="#292C47"/>
<path d="M115.42 191.695C115.42 191.695 125.538 188.9 129.398 196.753C133.258 204.605 131.509 219.494 126.409 220.894C121.31 222.294 113.977 220.681 111.86 215.793C109.743 210.908 108.054 203.962 108.561 199.465C109.068 194.967 112.733 192.771 115.42 191.695Z" fill="#EEA886"/>
<path d="M123.764 219.325C123.764 219.325 123.653 225.299 124.313 226.571C124.971 227.845 110.223 227.526 110.223 227.526C110.223 227.526 112.547 220.354 111.229 214.245C109.924 208.197 123.764 219.325 123.764 219.325Z" fill="#EEA886"/>
<path d="M110.434 211.984C110.434 211.984 111.222 213.584 115.04 213.327C118.858 213.067 123.893 208.464 125.513 208.053C127.134 207.64 127.23 206.72 127.23 206.72L128.087 208.243L129.749 208.496C129.749 208.496 128.619 203.88 131.078 202.257C133.537 200.632 129.972 187.544 117.523 190.7C117.523 190.7 108.024 192.439 107.896 197.743C107.769 203.046 108.59 209.174 110.434 211.984Z" fill="#3A3F47"/>
<path d="M125.088 226.417C125.088 226.417 125.046 223.986 123.945 223.753C122.841 223.518 112.351 222.076 110.997 222.608L110.417 225.821C110.417 225.821 113.025 227.427 125.088 226.417Z" fill="#E2D2CA"/>
<path d="M128.124 205.631C127.839 203.638 125.573 201.347 124.274 204.454C122.976 207.558 125.152 212.08 126.607 211.838C128.064 211.595 128.507 208.337 128.124 205.631Z" fill="#EEA886"/>
<path d="M169.026 255.161L169.008 255.159C169.082 255.191 169.094 255.196 169.026 255.161Z" fill="#323657"/>
<path d="M112.469 193.12C112.469 193.12 100.132 192.538 110.315 211.793L112.469 193.12Z" fill="#3A3F47"/>
<path d="M84.981 389.052L85.8987 391.632L124.675 379.62L122.817 374.393L84.981 389.052Z" fill="#918783"/>
<path d="M126.006 377.782H121.598V335.634H126.006V377.782Z" fill="#918783"/>
<path d="M136.799 335.878H110.804V333.395H136.799V335.878Z" fill="#5E5854"/>
<path d="M162.964 389.052L162.046 391.632L123.269 379.62L124.974 374.067L162.964 389.052Z" fill="#918783"/>
<path d="M135.643 391.355V394.358L123.269 379.62L124.974 374.067L135.643 391.355Z" fill="#918783"/>
<path d="M166.588 392.641C166.588 394.642 164.965 396.265 162.964 396.265C160.962 396.265 159.339 394.642 159.339 392.641C159.339 390.64 160.962 389.017 162.964 389.017C164.965 389.017 166.588 390.64 166.588 392.641Z" fill="#BFB2AC"/>
<path d="M135.95 392.641C135.95 394.642 134.329 396.265 132.327 396.265C130.326 396.265 128.703 394.642 128.703 392.641C128.703 390.64 130.326 389.017 132.327 389.017C134.329 389.017 135.95 390.64 135.95 392.641Z" fill="#BFB2AC"/>
<path d="M88.6048 392.641C88.6048 394.642 86.9824 396.265 84.981 396.265C82.9795 396.265 81.3569 394.642 81.3569 392.641C81.3569 390.64 82.9795 389.017 84.981 389.017C86.9824 389.017 88.6048 390.64 88.6048 392.641Z" fill="#BFB2AC"/>
<path d="M150.526 333.395H97.4198C95.0782 333.395 93.1802 331.495 93.1802 329.155V328.225C93.1802 325.885 95.0782 323.988 97.4198 323.988H150.526C152.866 323.988 154.764 325.885 154.764 328.225V329.155C154.764 331.495 152.866 333.395 150.526 333.395Z" fill="#E2D2CA"/>
<path d="M264.146 392.641H260.633V284.454H264.146V392.641Z" fill="#706865"/>
<path d="M232.966 261.657H150.318C147.982 261.657 146.089 259.764 146.089 257.429V201.629C146.089 199.294 147.982 197.402 150.318 197.402H232.966C235.301 197.402 237.196 199.294 237.196 201.629V257.429C237.196 259.764 235.301 261.657 232.966 261.657Z" fill="#B8ABA5"/>
<path d="M233.629 251.589H149.657V200.875H233.629V251.589Z" fill="#F5F7FF"/>
<path d="M229.897 256.373C229.897 257.813 228.381 258.983 226.513 258.983C224.642 258.983 223.128 257.813 223.128 256.373C223.128 254.931 224.642 253.761 226.513 253.761C228.381 253.761 229.897 254.931 229.897 256.373Z" fill="#918681"/>
<path d="M210.504 278.384V277.241C210.504 277.241 208.896 270.129 197.522 270.129C186.148 270.129 186.378 278.384 186.378 278.384H210.504Z" fill="#998E89"/>
<path d="M186.239 271.185C186.239 271.185 188.711 270.995 189.617 270.448C190.522 269.901 195.938 266.26 197.21 266.844C198.482 267.425 206.949 270.018 206.655 271.257C206.36 272.494 205.576 272.375 204.979 272.155C204.383 271.937 198.235 270.646 197.693 270.864C197.693 270.864 203.73 273.068 203.755 274.673C203.779 276.281 202.49 276.672 201.919 277.28C201.347 277.886 200.659 279.395 199.103 279.512C197.547 279.628 189.953 276.986 188.39 276.865C186.826 276.746 183.933 276.964 183.738 276.709C183.54 276.454 186.239 271.185 186.239 271.185Z" fill="#EEA886"/>
<path d="M141.257 229.789C133.379 228.406 125.087 226.417 125.087 226.417L110.416 225.821C110.416 225.821 96.9502 228.785 91.6469 231.179C91.1438 231.407 91.1416 243.189 89.7612 246.278L94.158 255.552C94.158 255.552 96.6978 273.921 97.2246 282.092C97.4671 285.842 96.5407 318.338 96.5407 318.338C96.5407 318.338 97.8588 318.986 107.872 320.089C117.886 321.195 142.905 319.691 143.063 318.509C143.221 317.326 138.218 274.48 137.996 272.261C137.657 268.858 138.98 253.12 138.98 253.12C140.866 255.656 145.676 267.096 150.689 272.541C153.638 275.744 168.241 277.706 170.992 277.797C176.985 277.998 187.914 279.19 188.233 278.609C188.49 278.257 189.186 268.91 188.5 268.679C187.901 268.482 167.605 267.312 162.407 264.553C160.504 263.544 154.816 251.149 154.816 251.149C154.816 251.149 145.604 231.743 141.257 229.789Z" fill="#DBDFF0"/>
<path d="M113.122 317.398H86.9343C82.4383 317.398 78.7935 313.754 78.7935 309.26V266.73C78.7935 262.236 82.4383 258.592 86.9343 258.592H113.122C117.618 258.592 121.263 262.236 121.263 266.73V309.26C121.263 313.754 117.618 317.398 113.122 317.398Z" fill="#E2D2CA"/>
<path d="M113.737 331.052C107.477 331.052 102.398 328.95 98.6416 324.804C90.1519 315.434 91.6773 298.959 91.7466 298.264C91.8755 296.966 93.0347 296.016 94.331 296.147C95.629 296.275 96.5771 297.431 96.4492 298.727C96.4311 298.915 95.0785 313.848 102.153 321.643C105.015 324.794 108.804 326.328 113.737 326.328C115.042 326.328 116.1 327.386 116.1 328.69C116.1 329.994 115.042 331.052 113.737 331.052Z" fill="#E2D2CA"/>
<path d="M179.601 207.593H156.217C155.88 207.593 155.61 207.321 155.61 206.987V205.52C155.61 205.186 155.88 204.914 156.217 204.914H179.601C179.935 204.914 180.207 205.186 180.207 205.52V206.987C180.207 207.321 179.935 207.593 179.601 207.593Z" fill="#DFE1E8"/>
<path d="M179.601 213.339H156.217C155.88 213.339 155.61 213.07 155.61 212.733V211.266C155.61 210.932 155.88 210.66 156.217 210.66H179.601C179.935 210.66 180.207 210.932 180.207 211.266V212.733C180.207 213.07 179.935 213.339 179.601 213.339Z" fill="#DFE1E8"/>
<path d="M178.168 247.55H157.649C156.523 247.55 155.61 246.637 155.61 245.511V219.291C155.61 218.165 156.523 217.253 157.649 217.253H178.168C179.294 217.253 180.207 218.165 180.207 219.291V245.511C180.207 246.637 179.294 247.55 178.168 247.55Z" fill="#DFE1E8"/>
<path d="M225.748 247.55H188.402C186.618 247.55 185.173 246.105 185.173 244.322V208.14C185.173 206.359 186.618 204.914 188.402 204.914H225.748C227.532 204.914 228.977 206.359 228.977 208.14V244.322C228.977 246.105 227.532 247.55 225.748 247.55Z" fill="#DFE1E8"/>
<path d="M336.578 230.35C336.578 230.35 338.213 226.818 338.478 226.286C338.745 225.754 340.306 224.911 342.162 224.443C343.963 223.991 346.415 223.08 346.695 223.254C346.974 223.429 347.304 223.454 347.638 224.233C347.969 225.01 347.823 225.851 347.823 225.851C347.823 225.851 348.687 226.618 348.427 227.639C348.427 227.639 349.206 228.399 348.721 229.512C348.721 229.512 349.461 230.271 349.043 231.053C349.043 231.053 347.596 231.872 347.148 232.332C346.7 232.789 343.572 234.291 340.353 235.271C340.353 235.271 336.996 235.167 336.578 230.35Z" fill="#8E4F3A"/>
<path d="M340.353 235.271C340.353 235.271 336.357 235.968 335.004 235.186C333.648 234.407 335.224 230.341 335.224 230.341L337.755 228.812L340.353 235.271Z" fill="#8E4F3A"/>
<path d="M341.835 228.639C341.835 228.639 341.773 230.593 341.479 231.132C341.185 231.674 345.163 232.515 345.163 232.515C345.163 232.515 344.208 228.777 341.835 228.639Z" fill="#5E3527"/>
<path d="M346.195 223.424C346.195 223.424 341.831 225.542 342.085 226.286C342.34 227.031 342.885 227.152 342.885 227.152L341.484 228.839C341.484 228.839 341.19 230.479 343.063 230.321C343.063 230.321 342.627 231.825 344.416 231.459C344.416 231.459 344.572 232.579 345.433 232.554C346.292 232.532 349.043 231.053 349.043 231.053C349.043 231.053 349.54 230.452 348.781 229.487C348.781 229.487 349.32 228.441 348.499 227.61C348.499 227.61 348.751 226.264 347.855 225.371C347.855 225.371 347.947 223.869 346.658 223.234C346.658 223.234 346.378 223.333 346.195 223.424Z" fill="#7A4432"/>
<path d="M338.609 226.205C338.609 226.205 341.937 226.276 343.735 227.112C344.144 227.303 344.502 227.56 344.48 228.01C344.458 228.458 343.78 228.997 342.337 229.039C340.893 229.081 339.047 229.799 339.047 229.799C339.047 229.799 337.552 229.408 338.609 226.205Z" fill="#8E4F3A"/>
<path d="M347.855 225.371C347.855 225.371 342.875 227.075 342.536 227.488C342.197 227.899 341.556 226.083 341.87 225.749C342.184 225.418 346.061 223.352 346.489 223.236C346.915 223.122 348.38 224.122 347.855 225.371Z" fill="#8E4F3A"/>
<path d="M345.562 223.444C345.562 223.444 353.318 221.856 353.477 222.801C353.632 223.746 352.883 223.904 346.526 225.759C340.346 227.563 345.562 223.444 345.562 223.444Z" fill="#8E4F3A"/>
<path d="M292.261 382.489C292.261 382.489 294.733 386.187 298.199 386.984C301.666 387.783 305.083 389.054 305.107 391.241C305.135 393.43 295.084 394.734 291.115 392.527C285.192 389.237 284.591 390.229 283.935 388.584C283.277 386.939 284.724 382.539 284.68 382.017C284.628 381.369 292.261 382.489 292.261 382.489Z" fill="#353A3D"/>
<path d="M291.875 380.664C291.875 380.664 292.328 382.45 292.261 382.489C292.192 382.526 284.447 383.449 284.68 382.017C284.87 380.854 285.143 379.59 285.143 379.59L291.875 380.664Z" fill="#81807E"/>
<path d="M266.19 382.244C266.19 382.244 267.951 385.779 270.965 386.984C274.186 388.273 276.767 389.752 276.71 391.884C276.651 394.016 268.837 396.176 263.154 392.085C259.561 389.5 258.423 389.487 257.846 387.86C257.27 386.232 258.849 382.002 258.826 381.492C258.799 380.859 266.19 382.244 266.19 382.244Z" fill="#353A3D"/>
<path d="M266.276 380.406C266.276 380.406 266.257 382.21 266.19 382.244C266.123 382.277 258.636 382.895 258.826 381.492C258.977 380.377 259.551 379.031 259.551 379.031L266.276 380.406Z" fill="#81807E"/>
<path d="M293.728 272.368C293.728 272.368 300.686 303.041 302.275 312.384C303.625 320.337 304.704 328.618 304.056 334.36C303.254 341.466 293.189 378.301 293.61 380.387C294.03 382.469 281.612 381.203 281.612 381.203C281.612 381.203 290.735 339.631 289.205 331.982C288.072 326.32 278.151 288.694 276.631 290.623C275.11 292.553 273.224 326.132 272.098 331.708C270.973 337.281 267.514 381.327 267.514 381.327C267.514 381.327 259.784 382.467 257.721 380.721C257.721 380.721 256.78 343.111 257.498 332.66C257.772 328.678 252.831 284.907 259.166 267.284C262.516 257.971 293.728 272.368 293.728 272.368Z" fill="#2D3133"/>
<path d="M339.156 236.782C339.156 236.782 315.059 242.122 310.264 240.945C308.047 240.398 305.127 237.341 302.353 233.744C301.438 232.559 300.54 231.315 299.686 230.086L299.684 230.081C296.282 225.168 293.614 220.458 293.614 220.458C293.614 220.458 283.552 208.669 291.625 203.415C291.625 203.415 294.557 202.317 297.247 205.201C299.939 208.083 303.098 214.116 303.806 215.655C304.511 217.191 314.393 231.441 314.905 231.763C315.418 232.082 319.735 230.947 323.199 230.66C328.845 230.187 337.305 227.991 337.305 227.991L339.156 236.782Z" fill="#DBDFF0"/>
<path d="M284.074 200.785C284.074 200.785 294.431 202.925 295.661 204.014C296.994 205.174 299.347 216.513 299.488 219.674C299.629 222.833 298.239 236.03 296.905 240.943C295.571 245.858 295.816 270.062 296.66 276.872C296.66 276.872 275.805 282.794 255.3 280.128C255.3 280.128 258.737 254.661 257.916 247.928C256.864 239.3 254.335 219.424 254.335 219.424C254.335 219.424 256.149 205.579 257.975 204.033C259.801 202.49 272.383 200.785 272.383 200.785H284.074Z" fill="#BCC0CF"/>
<path d="M279.793 168.767C279.793 168.767 292.251 164.158 291.472 180.709C290.695 197.263 287.773 198.945 279.578 196.635C271.383 194.322 270.695 183.876 269.629 178.849C268.56 173.823 275.718 169.489 279.793 168.767Z" fill="#8E4F3A"/>
<path d="M285.704 203.027C285.704 203.027 283.138 204.721 273.417 200.439C273.417 200.439 273.692 193.775 271.786 187.551C269.879 181.328 284.831 195.851 284.831 195.851C284.675 195.962 284.645 196.583 284.734 197.451C284.811 198.186 284.972 199.098 285.214 200.024C285.761 202.104 285.704 201.211 285.704 203.027Z" fill="#8E4F3A"/>
<path d="M271.361 187.059C271.361 187.059 271.324 182.636 273.165 182.231C275.003 181.823 275.246 180.353 275.246 180.353L276.302 180.598C276.302 180.598 276.107 179.819 277.861 178.792C279.615 177.763 290.104 178.666 291.42 177.157C292.736 175.648 290.829 166.689 287.966 165.811C285.106 164.93 278.457 165.012 272.383 166.716C272.383 166.716 267.771 167.879 267.422 173.306C267.197 176.818 269.864 184.662 271.361 187.059Z" fill="#2D3133"/>
<path d="M285.214 200.024C275.557 198.401 274.115 192.909 274.092 192.823C277.846 197.664 284.734 197.451 284.734 197.451C284.811 198.186 284.972 199.098 285.214 200.024Z" fill="#633029"/>
<path d="M284.789 205.201C284.789 205.201 286.548 207.793 287.61 214.452C288.671 221.109 288.49 232.579 288.49 232.579L286.043 232.876C286.043 232.876 282.344 209.485 282.98 205.409L284.789 205.201Z" fill="#434343"/>
<path d="M275.246 180.353C274.696 178.894 271.589 179.077 271.905 181.39C272.225 183.703 274.793 187.265 275.825 186.597C276.854 185.929 276.005 182.364 275.246 180.353Z" fill="#8E4F3A"/>
<path d="M295.794 204.004C295.794 204.004 301.678 211.788 299.498 232.154C295.559 268.957 305.877 328.035 305.877 328.035L295.232 331.367C295.232 331.367 285.061 255.844 287.651 228.433C288.832 215.944 292.335 211.786 286.808 201.382C286.808 201.382 292.189 201.654 295.794 204.004Z" fill="#DBDFF0"/>
<path d="M269.52 201.211C269.52 201.211 286.367 218.222 287.686 231.12C289.007 244.017 291.155 331.367 291.155 331.367L251.047 329.031C251.047 329.031 254.734 282.923 255.635 277.154C256.533 271.386 258.393 238.266 254.336 222.9C252.153 214.643 254.749 204.169 259.732 203.027C264.715 201.884 269.52 201.211 269.52 201.211Z" fill="#DBDFF0"/>
<path d="M263.827 203.415C263.827 203.415 270.314 205.201 266.746 217.107C263.95 226.43 263.572 228.433 263.572 228.433L248.6 224.696C248.6 224.696 252.989 204.211 260.155 203.111C260.155 203.111 262.434 202.784 263.827 203.415Z" fill="#DBDFF0"/>
<path d="M312.909 266.426L283.562 296.788L264.069 277.958L292.654 246.86L312.909 266.426Z" fill="#616161"/>
<path d="M310.135 267.03L284.071 293.995L266.759 277.27L292.147 249.652L310.135 267.03Z" fill="#E0CEC7"/>
<path d="M304.128 262.525L305.959 260.633L298.959 253.87L296.856 255.5L304.128 262.525Z" fill="#616161"/>
<path d="M273.422 198.596C273.422 198.596 278.504 201.661 283.532 202.354L280.857 206.618L272.383 200.785L273.422 198.596Z" fill="#A7AAB8"/>
<path d="M285.214 200.024C285.214 200.024 284.677 201.78 283.532 202.354L286.043 205.854L285.952 201.211L285.214 200.024Z" fill="#A7AAB8"/>
<path d="M283.532 202.354L285.521 205.127C285.521 205.127 284.262 206.717 281.55 205.51L283.532 202.354Z" fill="#434343"/>
<path d="M302.353 233.742V233.744C301.438 232.559 300.54 231.315 299.686 230.086L299.684 230.081C299.684 230.081 300.005 221.106 299.726 218.529C299.726 218.529 302.658 228.196 302.353 233.742Z" fill="#A7AAB8"/>
<path d="M261.011 227.793C261.011 227.793 259.054 240.52 259.19 241.336C259.328 242.152 250.334 238.781 261.011 227.793Z" fill="#A7AAB8"/>
<path d="M296.341 230.457H291.613V223.239H296.341V230.457Z" fill="#C6CAD9"/>
<path d="M275.325 257.838C275.325 257.838 275.758 258.696 276.478 258.983C277.72 259.483 279.707 258.691 280.474 260.467C281.243 262.246 276.29 266.419 275.048 266.636C273.806 266.852 272.046 264.821 270.898 260.9C269.753 256.982 275.325 257.838 275.325 257.838Z" fill="#8E4F3A"/>
<path d="M280.13 259.91C280.13 259.91 282.262 261.815 284.37 264.239C286.221 266.367 288 269.221 287.683 269.76C286.973 270.96 285.254 268.284 283.277 266.305C281.456 264.482 281.758 264.801 281.758 264.801C281.758 264.801 281.755 264.608 283.344 266.997C285.053 269.565 286.543 272.38 286.137 273.006C285.942 273.31 285.145 274.057 284.764 272.828C285.105 273.402 285.165 273.261 284.937 273.436C283.754 274.337 280.649 270.978 279.414 269.642C280.357 270.673 280.934 271.537 279.867 271.623C278.647 271.725 274.476 266.767 272.806 265.142C270.987 263.369 280.13 259.91 280.13 259.91Z" fill="#8E4F3A"/>
<path d="M264.604 204.211C265.962 204.736 266.475 207.148 265.918 214.133C265.359 221.116 262.899 224.33 261.981 225.947C261.063 227.563 256.018 237.522 256.924 238.833C257.832 240.144 266.4 248.594 266.895 249.281C267.392 249.971 276.958 258.627 276.958 258.627L272.089 265.432C272.089 265.432 251.431 249.301 249.818 247.691C248.207 246.08 243.39 242.696 245.171 237.069C246.982 231.352 250.236 217.965 250.815 216.919C251.394 215.872 255.622 200.736 264.604 204.211Z" fill="#DBDFF0"/>
<path d="M442.882 368.869C442.882 368.869 442.162 370.571 440.801 372.347C439.804 373.648 436.698 378.994 435.333 379.368C433.964 379.741 429.738 380.486 429.367 382.848C428.994 385.208 428.808 386.885 432.97 387.07C437.134 387.258 439.868 387.506 441.857 384.587C443.847 381.666 447.014 379.553 447.014 379.553V387.172H448.629C448.629 387.172 449.377 379.244 449.812 378.685C450.245 378.126 451.366 372.036 447.511 368.869C443.659 365.701 442.882 368.869 442.882 368.869Z" fill="#163342"/>
<path d="M435.333 379.368C435.333 379.368 439.061 380.3 440.489 379.368C441.919 378.435 446.778 370.225 448.387 369.733C448.387 369.733 446.828 366.569 442.881 368.869C442.881 368.869 436.389 378.002 435.333 379.368Z" fill="#EEA886"/>
<path d="M443.861 185.125C443.861 185.125 435.822 202.072 441.355 203.083C448.953 204.476 452.029 190.441 452.029 190.441L443.861 185.125Z" fill="#163342"/>
<path d="M399.963 227.224C399.963 227.224 397.449 226.435 397.246 224.946C397.075 223.679 395.937 222.168 395.588 221.703C395.121 221.079 394.401 218.63 393.609 219.212C392.817 219.793 394.601 223.303 394.829 224.114C395.056 224.926 391.62 223.382 390.769 223.595C389.92 223.808 387.683 229.645 390.165 230.43C392.647 231.216 395.819 230.42 396.227 230.645C396.635 230.87 398.011 231.288 398.011 231.288L399.963 227.224Z" fill="#EEA886"/>
<path d="M391.392 223.642C391.392 223.642 383.636 221.74 383.012 222.044C382.389 222.351 382.309 222.776 383.027 222.984C383.747 223.194 390.469 225.04 390.469 225.04C390.469 225.04 380.909 224.33 380.345 224.468C380.013 224.55 379.813 225.366 380.186 225.514C380.56 225.66 389.997 226.907 389.997 226.907C389.997 226.907 381.07 226.259 380.632 226.516C380.248 226.741 380.251 227.538 380.909 227.629C381.57 227.723 389.821 228.792 389.821 228.792C389.821 228.792 383.294 228.73 383.052 229.166C382.903 229.433 382.695 230.13 384.38 230.093C386.065 230.059 390.049 230.388 390.049 230.388L391.392 223.642Z" fill="#EEA886"/>
<path d="M463.725 373.807C463.725 373.807 459.56 379.988 457.883 381.48C457.883 381.48 454.154 382.848 453.781 385.455C453.409 388.065 453.471 389.806 457.883 389.93C462.295 390.054 465.187 389.262 465.996 386.591C466.803 383.919 468.572 382.101 468.572 382.101V387.691H469.566C469.566 387.691 469.814 382.286 469.876 381.294C469.937 380.3 470.591 376.478 468.492 374.786C466.397 373.092 463.725 373.807 463.725 373.807Z" fill="#163342"/>
<path d="M466.521 254.496C466.521 254.496 471.778 261.33 473.203 269.436C474.631 277.545 472.362 304.755 472.424 308.762C472.486 312.77 476.215 322.741 475.47 330.288C474.723 337.838 471.781 375.405 471.781 375.405L463.725 373.807C463.725 373.807 464.19 335.507 463.725 332.339C463.257 329.17 462.322 317.621 462.136 316.317C461.951 315.011 450.302 280.753 450.302 274.908C450.302 269.063 453.845 244.96 466.521 254.496Z" fill="#2D3133"/>
<path d="M440.11 257.167C440.11 257.167 431.473 290.123 430.448 294.69C429.422 299.256 427.937 303.024 427.937 304.96C427.937 309.46 429.61 316.683 429.61 316.683L440.578 369.129H451.024C451.024 369.129 445.202 337.664 445.047 331.512C444.891 325.346 440.143 316.589 441.073 313.982C442.006 311.372 456.082 281.27 456.082 281.27C456.082 281.27 466.738 247.599 440.11 257.167Z" fill="#2D3133"/>
<path d="M457.883 381.48C457.883 381.48 462.146 383.862 464.892 380.802C467.211 378.22 468.492 374.786 468.492 374.786L463.725 373.807L457.883 381.48Z" fill="#EEA886"/>
<path d="M443.678 201.159C443.678 201.159 440.118 201.495 437.426 204.377C434.736 207.259 432.21 211.858 431.505 213.394C430.8 214.93 420.923 229.178 420.408 229.497C419.896 229.819 415.578 228.683 412.119 228.394C406.475 227.924 398.028 225.049 398.028 225.049L396.776 231.426C396.776 231.426 417.545 238.128 422.338 236.948C428.199 235.503 441.692 218.197 441.692 218.197C441.692 218.197 451.752 206.413 443.678 201.159Z" fill="#DBDFF0"/>
<path d="M449.894 198.661C449.894 198.661 445.279 200.84 443.678 201.159C442.078 201.481 435.862 209.55 434.774 212.496C433.685 215.444 434.774 219.862 437.015 225.052C439.257 230.239 437.144 231.968 438.168 237.155C439.193 242.345 438.863 261.753 438.67 264.635C438.48 267.519 468.658 271.888 474.616 266.636C474.616 266.636 470.583 249.143 465.808 244.151C464.776 243.07 464.885 235.877 465.59 234.083C466.293 232.29 474.238 218.902 474.238 218.902C474.238 218.902 474.822 205.325 471.355 202.633C468.344 200.296 460.137 199.462 458.665 198.95C457.19 198.436 452.905 198.213 449.894 198.661Z" fill="#2F4563"/>
<path d="M447.691 193.34C447.691 193.34 448.612 201.8 448.419 204.555C448.419 204.555 453.211 209.357 458.665 198.95C458.665 198.95 456.369 194.658 458.096 188.813C459.823 182.968 447.691 193.34 447.691 193.34Z" fill="#EEA886"/>
<path d="M434.274 226.964C434.274 226.964 433.121 219.291 434.345 214.625C434.345 214.625 434.345 218.638 436.547 224.335L434.274 226.964Z" fill="#AAADBA"/>
<path d="M461.852 177.466C461.852 177.466 462.911 176.197 463.304 177.476C463.7 178.755 462.406 182.557 462.265 183.106C462.265 183.106 461.624 185.241 461.367 184.969C461.112 184.694 461.852 177.466 461.852 177.466Z" fill="#EEA987"/>
<path d="M443.377 177.625C443.377 177.625 442.32 176.356 441.924 177.635C441.531 178.914 442.822 182.715 442.964 183.265C442.964 183.265 443.607 185.399 443.862 185.125C444.119 184.853 443.377 177.625 443.377 177.625Z" fill="#EEA987"/>
<path d="M450.955 165.313C450.955 165.313 441.249 166.808 442.669 182.095C444.089 197.382 452.657 196.17 453.229 196.155C453.803 196.142 461.825 196.474 462.52 177.82C462.52 177.82 462.841 164.025 450.955 165.313Z" fill="#EEA987"/>
<path d="M460.657 176.905C460.657 176.905 449.884 180.108 444.725 179.084C444.725 179.084 444.396 180.986 443.654 181.105C442.914 181.221 442.535 177.466 442.535 177.466C442.535 177.466 442.283 165.036 453.531 164.92C464.781 164.801 462.495 178.384 462.495 178.384L462.342 180.704C462.342 180.704 460.731 181.343 460.657 176.905Z" fill="#163342"/>
<path d="M457.047 194.695C457.047 194.695 453.647 197.916 448.419 194.963C448.419 194.963 449.963 197.54 452.895 197.476C455.824 197.411 457.047 194.695 457.047 194.695Z" fill="#A77860"/>
<path d="M462.346 199.687C462.346 199.687 459.048 209.423 449.997 208.709C440.944 207.991 445.704 200.486 445.704 200.486C445.704 200.486 447.961 199.192 448.597 199.071C449.23 198.95 458.605 198.831 458.605 198.831L462.346 199.687Z" fill="#EEA886"/>
<path d="M445.705 200.486C445.705 200.486 440.964 213.599 440.964 226.964C440.964 240.329 440.58 262.1 438.925 268.974C437.27 275.848 432.559 297.109 432.559 297.109L428.865 295.199C428.865 295.199 437.747 261.268 438.415 258.822C439.086 256.373 437.908 230.526 437.27 228.362C436.634 226.197 433.925 216.562 434.345 213.891C434.877 210.522 438.032 205.535 443.124 201.248L445.705 200.486Z" fill="#DBDFF0"/>
<path d="M460.558 199.279C460.558 199.279 457.611 208.713 456.116 220.795C454.624 232.878 460.701 288.961 464.776 301.693L480.567 299.145C480.567 299.145 477.167 259.502 472.553 252.289C467.941 245.074 466.471 238.692 471.452 223.634C476.433 208.575 469.27 201.119 469.27 201.119C469.27 201.119 461.943 199.435 460.558 199.279Z" fill="#DBDFF0"/>
<path d="M443.522 239.285L462.668 272.439L483.952 260.153L465.637 226.519L443.522 239.285Z" fill="#616161"/>
<path d="M445.831 240.426L462.834 269.869L481.737 258.958L465.472 229.089L445.831 240.426Z" fill="#E0CEC7"/>
<path d="M452.103 237.781L450.911 235.713L458.551 231.303L460.043 233.198L452.103 237.781Z" fill="#616161"/>
<path d="M453.016 261.303C453.016 261.303 453.887 261.308 454.268 261.123C454.268 261.123 454.936 260.737 455.429 260.489C455.584 260.41 455.723 260.346 455.817 260.314C456.206 260.18 457.104 260 457.95 259.411C458.796 258.825 461.795 255.354 461.795 255.354L460.38 253.202L459.34 250.998C459.34 250.998 453.046 251.404 452.195 251.861C452.111 251.906 452.031 251.953 451.96 252.002C451.274 252.46 450.958 253.086 450.626 253.365C450.505 253.469 449.369 254.58 449.409 255.052C449.463 255.708 449.767 256.141 450.163 256.358C450.163 256.358 450.327 257.637 450.958 258.236C450.958 258.236 451.069 259.421 452.066 259.94C452.066 259.94 452.316 261.132 453.016 261.303Z" fill="#EEA886"/>
<path d="M465.989 201.159C465.989 201.159 471.803 199.494 475.136 205.898C478.466 212.305 478.451 215.039 478.894 218.165C479.315 221.119 481.213 229.183 481.406 230.014C481.599 230.848 485.896 240.777 483.924 244.247C481.945 247.735 461.819 258.003 461.948 258.773C462.077 259.539 458.464 251.008 458.464 251.008C458.464 251.008 466.605 246.471 467.941 245.074C470.106 242.805 474.676 240.359 473.738 237.544C472.634 234.237 469.321 223.08 468.552 221.448C467.782 219.813 461.09 203.242 465.989 201.159Z" fill="#DBDFF0"/>
<defs>
<linearGradient id="paint0_linear_45_3" x1="315.037" y1="60.8442" x2="411.841" y2="60.8442" gradientUnits="userSpaceOnUse">
<stop stop-color="#FF9F55"/>
<stop offset="1" stop-color="#FFD255"/>
</linearGradient>
<linearGradient id="paint1_linear_45_3" x1="402.638" y1="18.1244" x2="438.892" y2="18.1244" gradientUnits="userSpaceOnUse">
<stop stop-color="#FF9F55"/>
<stop offset="1" stop-color="#FFD255"/>
</linearGradient>
<linearGradient id="paint2_linear_45_3" x1="313.478" y1="95.9105" x2="336.28" y2="171.037" gradientUnits="userSpaceOnUse">
<stop stop-color="#40D5E6"/>
<stop offset="1" stop-color="#5577FF"/>
</linearGradient>
<linearGradient id="paint3_linear_45_3" x1="356.79" y1="150.828" x2="404.797" y2="71.1155" gradientUnits="userSpaceOnUse">
<stop stop-color="#602F80"/>
<stop offset="1" stop-color="#5770FF"/>
</linearGradient>
<linearGradient id="paint4_linear_45_3" x1="-756.325" y1="1032.15" x2="-738.021" y2="1018.06" gradientUnits="userSpaceOnUse">
<stop stop-color="#602F80"/>
<stop offset="1" stop-color="#5770FF"/>
</linearGradient>
<linearGradient id="paint5_linear_45_3" x1="95.687" y1="317.529" x2="95.687" y2="226.773" gradientUnits="userSpaceOnUse">
<stop stop-color="#602F80"/>
<stop offset="1" stop-color="#5770FF"/>
</linearGradient>
<linearGradient id="paint6_linear_45_3" x1="95.6858" y1="222.403" x2="550.472" y2="222.403" gradientUnits="userSpaceOnUse">
<stop stop-color="#FF9F55"/>
<stop offset="1" stop-color="#FFD255"/>
</linearGradient>
<linearGradient id="paint7_linear_45_3" x1="30.5035" y1="261.639" x2="30.5035" y2="204.82" gradientUnits="userSpaceOnUse">
<stop stop-color="#FF9F55"/>
<stop offset="1" stop-color="#FFD255"/>
</linearGradient>
<linearGradient id="paint8_linear_45_3" x1="44.5118" y1="261.637" x2="44.5118" y2="204.818" gradientUnits="userSpaceOnUse">
<stop stop-color="#FF9F55"/>
<stop offset="1" stop-color="#FFD255"/>
</linearGradient>
<linearGradient id="paint9_linear_45_3" x1="58.5206" y1="261.637" x2="58.5206" y2="204.818" gradientUnits="userSpaceOnUse">
<stop stop-color="#FF9F55"/>
<stop offset="1" stop-color="#FFD255"/>
</linearGradient>
<linearGradient id="paint10_linear_45_3" x1="72.5289" y1="261.637" x2="72.5289" y2="204.818" gradientUnits="userSpaceOnUse">
<stop stop-color="#FF9F55"/>
<stop offset="1" stop-color="#FFD255"/>
</linearGradient>
<linearGradient id="paint11_linear_45_3" x1="262.478" y1="449.926" x2="269.678" y2="40.8546" gradientUnits="userSpaceOnUse">
<stop stop-color="#40D5E6"/>
<stop offset="1" stop-color="#5577FF"/>
</linearGradient>
<linearGradient id="paint12_linear_45_3" x1="287.001" y1="105.204" x2="340.624" y2="105.204" gradientUnits="userSpaceOnUse">
<stop stop-color="#40D5E6"/>
<stop offset="1" stop-color="#5577FF"/>
</linearGradient>
<linearGradient id="paint13_linear_45_3" x1="287.001" y1="133.626" x2="336.224" y2="133.626" gradientUnits="userSpaceOnUse">
<stop stop-color="#40D5E6"/>
<stop offset="1" stop-color="#5577FF"/>
</linearGradient>
<linearGradient id="paint14_linear_45_3" x1="287.001" y1="119.415" x2="329.59" y2="119.415" gradientUnits="userSpaceOnUse">
<stop stop-color="#40D5E6"/>
<stop offset="1" stop-color="#5577FF"/>
</linearGradient>
<linearGradient id="paint15_linear_45_3" x1="229.467" y1="160.601" x2="229.467" y2="101.73" gradientUnits="userSpaceOnUse">
<stop stop-color="#7DB3E0"/>
<stop offset="1" stop-color="white"/>
</linearGradient>
<radialGradient id="paint16_radial_45_3" cx="0" cy="0" r="1" gradientUnits="userSpaceOnUse" gradientTransform="translate(323.078 235.11) scale(163.07 163.03)">
<stop stop-color="#90C2E8"/>
<stop offset="0.160246" stop-color="#90C2E8"/>
<stop offset="0.58057" stop-color="#47AFFF"/>
<stop offset="1" stop-color="#6783F5"/>
</radialGradient>
<linearGradient id="paint17_linear_45_3" x1="95.686" y1="222.403" x2="550.472" y2="222.403" gradientUnits="userSpaceOnUse">
<stop stop-color="#FFF8F2"/>
<stop offset="1" stop-color="#FFFCF2"/>
</linearGradient>
<linearGradient id="paint18_linear_45_3" x1="-756.325" y1="1032.15" x2="-738.02" y2="1018.06" gradientUnits="userSpaceOnUse">
<stop stop-color="#F3EFF6"/>
<stop offset="1" stop-color="#F2F4FF"/>
</linearGradient>
<linearGradient id="paint19_linear_45_3" x1="95.6866" y1="222.403" x2="550.472" y2="222.403" gradientUnits="userSpaceOnUse">
<stop stop-color="#FFF8F2"/>
<stop offset="1" stop-color="#FFFCF2"/>
</linearGradient>
<linearGradient id="paint20_linear_45_3" x1="262.478" y1="449.926" x2="269.678" y2="40.8546" gradientUnits="userSpaceOnUse">
<stop stop-color="#F1FCFE"/>
<stop offset="1" stop-color="#F2F5FF"/>
</linearGradient>
<radialGradient id="paint21_radial_45_3" cx="0" cy="0" r="1" gradientUnits="userSpaceOnUse" gradientTransform="translate(323.078 235.11) scale(163.07 163.03)">
<stop stop-color="#F7FBFE"/>
<stop offset="0.160246" stop-color="#F7FBFE"/>
<stop offset="0.58057" stop-color="#F1F9FF"/>
<stop offset="1" stop-color="#F4F6FF"/>
</radialGradient>
<linearGradient id="paint22_linear_45_3" x1="58.4227" y1="314.823" x2="56.2625" y2="228.04" gradientUnits="userSpaceOnUse">
<stop stop-color="#FF9F55"/>
<stop offset="1" stop-color="#FFD255"/>
</linearGradient>
<linearGradient id="paint23_linear_45_3" x1="47.8745" y1="315.083" x2="45.7144" y2="228.3" gradientUnits="userSpaceOnUse">
<stop stop-color="#FF9F55"/>
<stop offset="1" stop-color="#FFD255"/>
</linearGradient>
<linearGradient id="paint24_linear_45_3" x1="285.87" y1="-9.40956" x2="266.43" y2="63.3298" gradientUnits="userSpaceOnUse">
<stop stop-color="#FF9F55"/>
<stop offset="1" stop-color="#FFD255"/>
</linearGradient>
<linearGradient id="paint25_linear_45_3" x1="284.9" y1="-9.6723" x2="265.458" y2="63.0712" gradientUnits="userSpaceOnUse">
<stop stop-color="#FF9F55"/>
<stop offset="1" stop-color="#FFD255"/>
</linearGradient>
<linearGradient id="paint26_linear_45_3" x1="227.512" y1="73.1604" x2="232.192" y2="144.82" gradientUnits="userSpaceOnUse">
<stop stop-color="#40D5E6"/>
<stop offset="1" stop-color="#5577FF"/>
</linearGradient>
<linearGradient id="paint27_linear_45_3" x1="227.512" y1="73.1605" x2="232.192" y2="144.82" gradientUnits="userSpaceOnUse">
<stop stop-color="#40D5E6"/>
<stop offset="1" stop-color="#5577FF"/>
</linearGradient>
<linearGradient id="paint28_linear_45_3" x1="95.687" y1="317.529" x2="95.687" y2="226.773" gradientUnits="userSpaceOnUse">
<stop stop-color="#F3EFF6"/>
<stop offset="1" stop-color="#F2F4FF"/>
</linearGradient>
<radialGradient id="paint29_radial_45_3" cx="0" cy="0" r="1" gradientUnits="userSpaceOnUse" gradientTransform="translate(323.078 235.11) scale(163.071 163.03)">
<stop stop-color="#F7FBFE"/>
<stop offset="0.160246" stop-color="#F7FBFE"/>
<stop offset="0.58057" stop-color="#F1F9FF"/>
<stop offset="1" stop-color="#F4F6FF"/>
</radialGradient>
</defs>
</svg>
